<?xml version="1.0" encoding="UTF-8" standalone="no"?><svg xmlns="http://www.w3.org/2000/svg" xmlns:xlink="http://www.w3.org/1999/xlink" contentStyleType="text/css" height="1859px" preserveAspectRatio="none" style="width:1480px;height:1859px;background:#FFFFFF;" version="1.1" viewBox="0 0 1480 1859" width="1480px" zoomAndPan="magnify"><defs/><g><ellipse cx="692.75" cy="20" fill="#222222" rx="10" ry="10" style="stroke:#222222;stroke-width:1.0;"/><rect fill="#F1F1F1" height="35.0938" rx="12.5" ry="12.5" style="stroke:#181818;stroke-width:0.5;" width="244" x="570.75" y="50"/><text fill="#000000" font-family="sans-serif" font-size="12" lengthAdjust="spacing" textLength="224" x="580.75" y="72.457">solicitar la cantidad de monedas a minar</text><rect fill="#F1F1F1" height="35.0938" rx="12.5" ry="12.5" style="stroke:#181818;stroke-width:0.5;" width="229" x="578.25" y="105.0938"/><text fill="#000000" font-family="sans-serif" font-size="12" lengthAdjust="spacing" textLength="209" x="588.25" y="127.5508">solicitar la cantidad de rigs que posee</text><rect fill="#F1F1F1" height="35.0938" rx="12.5" ry="12.5" style="stroke:#181818;stroke-width:0.5;" width="228" x="578.75" y="160.1875"/><text fill="#000000" font-family="sans-serif" font-size="12" lengthAdjust="spacing" textLength="208" x="588.75" y="182.6445">solicitar la cantidad de Cpus por Rack</text><rect fill="#F1F1F1" height="35.0938" rx="12.5" ry="12.5" style="stroke:#181818;stroke-width:0.5;" width="235" x="575.25" y="215.2813"/><text fill="#000000" font-family="sans-serif" font-size="12" lengthAdjust="spacing" textLength="215" x="585.25" y="237.7383">Solicitar la cantidad de nucleos por cpu</text><path d="M930.75,260.375 L930.75,294.0781 L910.75,298.0781 L930.75,302.0781 L930.75,335.7813 A0,0 0 0 0 930.75,335.7813 L1468.75,335.7813 A0,0 0 0 0 1468.75,335.7813 L1468.75,270.375 L1458.75,260.375 L930.75,260.375 A0,0 0 0 0 930.75,260.375 " fill="#FEFFDD" style="stroke:#181818;stroke-width:0.5;"/><path d="M1458.75,260.375 L1458.75,270.375 L1468.75,270.375 L1458.75,260.375 " fill="#FEFFDD" style="stroke:#181818;stroke-width:0.5;"/><text fill="#000000" font-family="sans-serif" font-size="13" lengthAdjust="spacing" textLength="251" x="936.75" y="278.8701">se le asigna la cantidad de cpus que posee</text><text fill="#000000" font-family="sans-serif" font-size="13" lengthAdjust="spacing" textLength="102" x="936.75" y="295.2217">se le asigna su id</text><text fill="#000000" font-family="sans-serif" font-size="13" lengthAdjust="spacing" textLength="169" x="936.75" y="311.5732">esto mediante una estructura</text><text fill="#000000" font-family="sans-serif" font-size="13" lengthAdjust="spacing" textLength="517" x="936.75" y="327.9248">El cpu tambien es una estructura, posee de atributos id y la cantidad de cores que posee</text><rect fill="#F1F1F1" height="35.0938" rx="12.5" ry="12.5" style="stroke:#181818;stroke-width:0.5;" width="436" x="474.75" y="280.5313"/><text fill="#000000" font-family="sans-serif" font-size="12" lengthAdjust="spacing" textLength="416" x="484.75" y="302.9883">Crear el array de los Racks y asignarles sus propiedades correspondientes</text><rect fill="#F1F1F1" height="35.0938" rx="12.5" ry="12.5" style="stroke:#181818;stroke-width:0.5;" width="224" x="580.75" y="355.7813"/><text fill="#000000" font-family="sans-serif" font-size="12" lengthAdjust="spacing" textLength="204" x="590.75" y="378.2383">crear el hilo de fluctuacion de precios</text><rect fill="#F1F1F1" height="35.0938" rx="12.5" ry="12.5" style="stroke:#181818;stroke-width:0.5;" width="296" x="544.75" y="410.875"/><text fill="#000000" font-family="sans-serif" font-size="12" lengthAdjust="spacing" textLength="276" x="554.75" y="433.332">crear el array de hilos para los Racks y ejecutarlos</text><rect fill="#555555" height="6" rx="2.5" ry="2.5" style="stroke:#555555;stroke-width:1.0;" width="1375.5" x="11" y="465.9688"/><path d="M207,802.4922 L207,845.1953 L431,845.1953 L431,812.4922 L421,802.4922 L207,802.4922 " fill="#FEFFDD" style="stroke:#181818;stroke-width:0.5;"/><path d="M421,802.4922 L421,812.4922 L431,812.4922 L421,802.4922 " fill="#FEFFDD" style="stroke:#181818;stroke-width:0.5;"/><text fill="#000000" font-family="sans-serif" font-size="13" lengthAdjust="spacing" textLength="199" x="213" y="820.9873">estos pasos son correspondientes</text><text fill="#000000" font-family="sans-serif" font-size="13" lengthAdjust="spacing" textLength="163" x="213" y="837.3389">al hilo de variacion de precio</text><rect fill="#F1F1F1" height="35.0938" rx="12.5" ry="12.5" style="stroke:#181818;stroke-width:0.5;" width="230" x="204" y="880.1953"/><text fill="#000000" font-family="sans-serif" font-size="12" lengthAdjust="spacing" textLength="210" x="214" y="902.6523">crear un numero aleatorio de 0 a 1000</text><rect fill="#F1F1F1" height="35.0938" rx="12.5" ry="12.5" style="stroke:#181818;stroke-width:0.5;" width="251" x="193.5" y="950.2891"/><text fill="#000000" font-family="sans-serif" font-size="12" lengthAdjust="spacing" textLength="231" x="203.5" y="972.7461">obtener su modulo al dividirlo entre 10000</text><rect fill="#F1F1F1" height="35.0938" rx="12.5" ry="12.5" style="stroke:#181818;stroke-width:0.5;" width="161" x="238.5" y="1020.3828"/><text fill="#000000" font-family="sans-serif" font-size="12" lengthAdjust="spacing" textLength="141" x="248.5" y="1042.8398">numero aleatorio de 0 a 1</text><polygon fill="#F1F1F1" points="281,1089.9297,357,1089.9297,369,1101.9297,357,1113.9297,281,1113.9297,269,1101.9297,281,1089.9297" style="stroke:#181818;stroke-width:0.5;"/><text fill="#000000" font-family="sans-serif" font-size="11" lengthAdjust="spacing" textLength="76" x="281" y="1106.4307">es 0 el aleatorio</text><text fill="#000000" font-family="sans-serif" font-size="11" lengthAdjust="spacing" textLength="19" x="250" y="1099.5127">true</text><text fill="#000000" font-family="sans-serif" font-size="11" lengthAdjust="spacing" textLength="24" x="369" y="1099.5127">false</text><rect fill="#F1F1F1" height="35.0938" rx="12.5" ry="12.5" style="stroke:#181818;stroke-width:0.5;" width="287" x="23" y="1123.9297"/><text fill="#000000" font-family="sans-serif" font-size="12" lengthAdjust="spacing" textLength="267" x="33" y="1146.3867">sumar al precio actual el valor del modulo 10000</text><rect fill="#F1F1F1" height="35.0938" rx="12.5" ry="12.5" style="stroke:#181818;stroke-width:0.5;" width="283" x="330" y="1123.9297"/><text fill="#000000" font-family="sans-serif" font-size="12" lengthAdjust="spacing" textLength="263" x="340" y="1146.3867">restar al precio actual el valor del modulo 10000</text><polygon fill="#F1F1F1" points="319,1165.0234,331,1177.0234,319,1189.0234,307,1177.0234,319,1165.0234" style="stroke:#181818;stroke-width:0.5;"/><rect fill="#F1F1F1" height="35.0938" rx="12.5" ry="12.5" style="stroke:#181818;stroke-width:0.5;" width="137" x="250.5" y="1224.0234"/><text fill="#000000" font-family="sans-serif" font-size="12" lengthAdjust="spacing" textLength="117" x="260.5" y="1246.4805">sleep de 2 segundos</text><path d="M903.75,491.9688 L903.75,518.3203 L1095.75,518.3203 L1095.75,501.9688 L1085.75,491.9688 L903.75,491.9688 " fill="#FEFFDD" style="stroke:#181818;stroke-width:0.5;"/><path d="M1085.75,491.9688 L1085.75,501.9688 L1095.75,501.9688 L1085.75,491.9688 " fill="#FEFFDD" style="stroke:#181818;stroke-width:0.5;"/><text fill="#000000" font-family="sans-serif" font-size="13" lengthAdjust="spacing" textLength="171" x="909.75" y="510.4639">proceso empleado por el rack</text><rect fill="#F1F1F1" height="35.0938" rx="12.5" ry="12.5" style="stroke:#181818;stroke-width:0.5;" width="108" x="945.75" y="538.3203"/><text fill="#000000" font-family="sans-serif" font-size="12" lengthAdjust="spacing" textLength="88" x="955.75" y="560.7773">RackIsOn = true</text><rect fill="#F1F1F1" height="35.0938" rx="12.5" ry="12.5" style="stroke:#181818;stroke-width:0.5;" width="348" x="825.75" y="637.4141"/><text fill="#000000" font-family="sans-serif" font-size="12" lengthAdjust="spacing" textLength="328" x="835.75" y="659.8711">crear el array de hilos segun la cantidad de cpus asignados</text><rect fill="#F1F1F1" height="35.0938" rx="12.5" ry="12.5" style="stroke:#181818;stroke-width:0.5;" width="332" x="833.75" y="692.5078"/><text fill="#000000" font-family="sans-serif" font-size="12" lengthAdjust="spacing" textLength="312" x="843.75" y="714.9648">asignarle a cada uno un limite inferior y superor aleatorio</text><rect fill="#555555" height="6" rx="2.5" ry="2.5" style="stroke:#555555;stroke-width:1.0;" width="697.5" x="651" y="747.6016"/><rect fill="#F1F1F1" height="35.0938" rx="12.5" ry="12.5" style="stroke:#181818;stroke-width:0.5;" width="222" x="756" y="890.1484"/><text fill="#000000" font-family="sans-serif" font-size="12" lengthAdjust="spacing" textLength="202" x="766" y="912.6055">esperar a los cpus por medio de join</text><rect fill="#F1F1F1" height="35.0938" rx="12.5" ry="12.5" style="stroke:#181818;stroke-width:0.5;" width="404" x="665" y="960.2422"/><text fill="#000000" font-family="sans-serif" font-size="12" lengthAdjust="spacing" textLength="384" x="675" y="982.6992">obtenido el valor del cpu, multiplicarlo por el valor actual de la moneda</text><rect fill="#F1F1F1" height="35.0938" rx="12.5" ry="12.5" style="stroke:#181818;stroke-width:0.5;" width="180" x="777" y="1030.3359"/><text fill="#000000" font-family="sans-serif" font-size="12" lengthAdjust="spacing" textLength="160" x="787" y="1052.793">sumar el producto al subtotal</text><path d="M1141.5,845.6016 L1141.5,871.9531 L1260.5,871.9531 L1260.5,855.6016 L1250.5,845.6016 L1141.5,845.6016 " fill="#FEFFDD" style="stroke:#181818;stroke-width:0.5;"/><path d="M1250.5,845.6016 L1250.5,855.6016 L1260.5,855.6016 L1250.5,845.6016 " fill="#FEFFDD" style="stroke:#181818;stroke-width:0.5;"/><text fill="#000000" font-family="sans-serif" font-size="13" lengthAdjust="spacing" textLength="98" x="1147.5" y="864.0967">proceso del CPU</text><rect fill="#F1F1F1" height="35.0938" rx="12.5" ry="12.5" style="stroke:#181818;stroke-width:0.5;" width="208" x="1097" y="906.9531"/><text fill="#000000" font-family="sans-serif" font-size="12" lengthAdjust="spacing" textLength="188" x="1107" y="929.4102">determinar si un numero es primo</text><rect fill="#F1F1F1" height="35.0938" rx="12.5" ry="12.5" style="stroke:#181818;stroke-width:0.5;" width="175" x="1113.5" y="1025.9648"/><text fill="#000000" font-family="sans-serif" font-size="12" lengthAdjust="spacing" textLength="155" x="1123.5" y="1048.4219">sumar el numero al subtotal</text><polygon fill="#F1F1F1" points="1161,977.0469,1241,977.0469,1253,989.0469,1241,1001.0469,1161,1001.0469,1149,989.0469,1161,977.0469" style="stroke:#181818;stroke-width:0.5;"/><text fill="#000000" font-family="sans-serif" font-size="11" lengthAdjust="spacing" textLength="19" x="1205" y="1012.4658">true</text><text fill="#000000" font-family="sans-serif" font-size="11" lengthAdjust="spacing" textLength="80" x="1161" y="993.5479">numero es primo</text><polygon fill="#F1F1F1" points="1201,1085.4297,1213,1097.4297,1201,1109.4297,1189,1097.4297,1201,1085.4297" style="stroke:#181818;stroke-width:0.5;"/><polygon fill="#F1F1F1" points="1201,773.6016,1213,785.6016,1201,797.6016,1189,785.6016,1201,773.6016" style="stroke:#181818;stroke-width:0.5;"/><polygon fill="#F1F1F1" points="1121.5,1157.4297,1280.5,1157.4297,1292.5,1169.4297,1280.5,1181.4297,1121.5,1181.4297,1109.5,1169.4297,1121.5,1157.4297" style="stroke:#181818;stroke-width:0.5;"/><text fill="#000000" font-family="sans-serif" font-size="11" lengthAdjust="spacing" textLength="156" x="1124.5" y="1173.9307">inf &lt;= numero actual &lt;= superior</text><rect fill="#555555" height="6" rx="2.5" ry="2.5" style="stroke:#555555;stroke-width:1.0;" width="697.5" x="651" y="1201.4297"/><rect fill="#F1F1F1" height="35.0938" rx="12.5" ry="12.5" style="stroke:#181818;stroke-width:0.5;" width="305" x="847.25" y="1242.4297"/><text fill="#000000" font-family="sans-serif" font-size="12" lengthAdjust="spacing" textLength="285" x="857.25" y="1264.8867">sumar su resultado al total de monedas producidas</text><rect fill="#F1F1F1" height="35.0938" rx="12.5" ry="12.5" style="stroke:#181818;stroke-width:0.5;" width="154" x="922.75" y="1297.5234"/><text fill="#000000" font-family="sans-serif" font-size="12" lengthAdjust="spacing" textLength="134" x="932.75" y="1319.9805">reninicar cuenta del rack</text><rect fill="#F1F1F1" height="35.0938" rx="12.5" ry="12.5" style="stroke:#181818;stroke-width:0.5;" width="284" x="857.75" y="1352.6172"/><text fill="#000000" font-family="sans-serif" font-size="12" lengthAdjust="spacing" textLength="264" x="867.75" y="1375.0742">esperar a los demás hilos por medio de barrera</text><rect fill="#F1F1F1" height="35.0938" rx="12.5" ry="12.5" style="stroke:#181818;stroke-width:0.5;" width="114" x="942.75" y="1456.6289"/><text fill="#000000" font-family="sans-serif" font-size="12" lengthAdjust="spacing" textLength="94" x="952.75" y="1479.0859">RackIsOn = false</text><polygon fill="#F1F1F1" points="909.25,1407.7109,1090.25,1407.7109,1102.25,1419.7109,1090.25,1431.7109,909.25,1431.7109,897.25,1419.7109,909.25,1407.7109" style="stroke:#181818;stroke-width:0.5;"/><text fill="#000000" font-family="sans-serif" font-size="11" lengthAdjust="spacing" textLength="19" x="1003.75" y="1443.1299">true</text><text fill="#000000" font-family="sans-serif" font-size="11" lengthAdjust="spacing" textLength="181" x="909.25" y="1424.2119">monedas actuales &gt;= meta a producir</text><polygon fill="#F1F1F1" points="999.75,1511.7227,1011.75,1523.7227,999.75,1535.7227,987.75,1523.7227,999.75,1511.7227" style="stroke:#181818;stroke-width:0.5;"/><polygon fill="#F1F1F1" points="999.75,593.4141,1011.75,605.4141,999.75,617.4141,987.75,605.4141,999.75,593.4141" style="stroke:#181818;stroke-width:0.5;"/><polygon fill="#F1F1F1" points="976.75,1555.7227,1022.75,1555.7227,1034.75,1567.7227,1022.75,1579.7227,976.75,1579.7227,964.75,1567.7227,976.75,1555.7227" style="stroke:#181818;stroke-width:0.5;"/><text fill="#000000" font-family="sans-serif" font-size="11" lengthAdjust="spacing" textLength="46" x="976.75" y="1572.2236">RackIsOn</text><rect fill="#555555" height="6" rx="2.5" ry="2.5" style="stroke:#555555;stroke-width:1.0;" width="1375.5" x="11" y="1599.7227"/><rect fill="#F1F1F1" height="35.0938" rx="12.5" ry="12.5" style="stroke:#181818;stroke-width:0.5;" width="286" x="549.75" y="1625.7227"/><text fill="#000000" font-family="sans-serif" font-size="12" lengthAdjust="spacing" textLength="266" x="559.75" y="1648.1797">Indicarle al usuario que ha terminado el proceso</text><rect fill="#F1F1F1" height="35.0938" rx="12.5" ry="12.5" style="stroke:#181818;stroke-width:0.5;" width="128" x="628.75" y="1729.7344"/><text fill="#000000" font-family="sans-serif" font-size="12" lengthAdjust="spacing" textLength="108" x="638.75" y="1752.1914">Mostrar la ganancia</text><polygon fill="#F1F1F1" points="631.25,1680.8164,754.25,1680.8164,766.25,1692.8164,754.25,1704.8164,631.25,1704.8164,619.25,1692.8164,631.25,1680.8164" style="stroke:#181818;stroke-width:0.5;"/><text fill="#000000" font-family="sans-serif" font-size="11" lengthAdjust="spacing" textLength="19" x="696.75" y="1716.2354">true</text><text fill="#000000" font-family="sans-serif" font-size="11" lengthAdjust="spacing" textLength="123" x="631.25" y="1697.3174">monedas actuales &gt; meta</text><polygon fill="#F1F1F1" points="692.75,1784.8281,704.75,1796.8281,692.75,1808.8281,680.75,1796.8281,692.75,1784.8281" style="stroke:#181818;stroke-width:0.5;"/><ellipse cx="692.75" cy="1838.8281" fill="none" rx="10" ry="10" style="stroke:#222222;stroke-width:1.5;"/><line style="stroke:#222222;stroke-width:2.5;" x1="686.5628" x2="698.9372" y1="1832.6409" y2="1845.0153"/><line style="stroke:#222222;stroke-width:2.5;" x1="698.9372" x2="686.5628" y1="1832.6409" y2="1845.0153"/><line style="stroke:#181818;stroke-width:1.0;" x1="692.75" x2="692.75" y1="30" y2="50"/><polygon fill="#181818" points="688.75,40,692.75,50,696.75,40,692.75,44" style="stroke:#181818;stroke-width:1.0;"/><line style="stroke:#181818;stroke-width:1.0;" x1="692.75" x2="692.75" y1="85.0938" y2="105.0938"/><polygon fill="#181818" points="688.75,95.0938,692.75,105.0938,696.75,95.0938,692.75,99.0938" style="stroke:#181818;stroke-width:1.0;"/><line style="stroke:#181818;stroke-width:1.0;" x1="692.75" x2="692.75" y1="140.1875" y2="160.1875"/><polygon fill="#181818" points="688.75,150.1875,692.75,160.1875,696.75,150.1875,692.75,154.1875" style="stroke:#181818;stroke-width:1.0;"/><line style="stroke:#181818;stroke-width:1.0;" x1="692.75" x2="692.75" y1="195.2813" y2="215.2813"/><polygon fill="#181818" points="688.75,205.2813,692.75,215.2813,696.75,205.2813,692.75,209.2813" style="stroke:#181818;stroke-width:1.0;"/><line style="stroke:#181818;stroke-width:1.0;" x1="692.75" x2="692.75" y1="250.375" y2="280.5313"/><polygon fill="#181818" points="688.75,270.5313,692.75,280.5313,696.75,270.5313,692.75,274.5313" style="stroke:#181818;stroke-width:1.0;"/><line style="stroke:#181818;stroke-width:1.0;" x1="692.75" x2="692.75" y1="315.625" y2="355.7813"/><polygon fill="#181818" points="688.75,345.7813,692.75,355.7813,696.75,345.7813,692.75,349.7813" style="stroke:#181818;stroke-width:1.0;"/><line style="stroke:#181818;stroke-width:1.0;" x1="692.75" x2="692.75" y1="390.875" y2="410.875"/><polygon fill="#181818" points="688.75,400.875,692.75,410.875,696.75,400.875,692.75,404.875" style="stroke:#181818;stroke-width:1.0;"/><line style="stroke:#181818;stroke-width:1.0;" x1="319" x2="319" y1="845.1953" y2="880.1953"/><polygon fill="#181818" points="315,870.1953,319,880.1953,323,870.1953,319,874.1953" style="stroke:#181818;stroke-width:1.0;"/><line style="stroke:#181818;stroke-width:1.0;" x1="319" x2="319" y1="915.2891" y2="950.2891"/><polygon fill="#181818" points="315,940.2891,319,950.2891,323,940.2891,319,944.2891" style="stroke:#181818;stroke-width:1.0;"/><line style="stroke:#181818;stroke-width:1.0;" x1="319" x2="319" y1="985.3828" y2="1020.3828"/><polygon fill="#181818" points="315,1010.3828,319,1020.3828,323,1010.3828,319,1014.3828" style="stroke:#181818;stroke-width:1.0;"/><line style="stroke:#181818;stroke-width:1.0;" x1="269" x2="166.5" y1="1101.9297" y2="1101.9297"/><line style="stroke:#181818;stroke-width:1.0;" x1="166.5" x2="166.5" y1="1101.9297" y2="1123.9297"/><polygon fill="#181818" points="162.5,1113.9297,166.5,1123.9297,170.5,1113.9297,166.5,1117.9297" style="stroke:#181818;stroke-width:1.0;"/><line style="stroke:#181818;stroke-width:1.0;" x1="369" x2="471.5" y1="1101.9297" y2="1101.9297"/><line style="stroke:#181818;stroke-width:1.0;" x1="471.5" x2="471.5" y1="1101.9297" y2="1123.9297"/><polygon fill="#181818" points="467.5,1113.9297,471.5,1123.9297,475.5,1113.9297,471.5,1117.9297" style="stroke:#181818;stroke-width:1.0;"/><line style="stroke:#181818;stroke-width:1.0;" x1="166.5" x2="166.5" y1="1159.0234" y2="1177.0234"/><line style="stroke:#181818;stroke-width:1.0;" x1="166.5" x2="307" y1="1177.0234" y2="1177.0234"/><polygon fill="#181818" points="297,1173.0234,307,1177.0234,297,1181.0234,301,1177.0234" style="stroke:#181818;stroke-width:1.0;"/><line style="stroke:#181818;stroke-width:1.0;" x1="471.5" x2="471.5" y1="1159.0234" y2="1177.0234"/><line style="stroke:#181818;stroke-width:1.0;" x1="471.5" x2="331" y1="1177.0234" y2="1177.0234"/><polygon fill="#181818" points="341,1173.0234,331,1177.0234,341,1181.0234,337,1177.0234" style="stroke:#181818;stroke-width:1.0;"/><line style="stroke:#181818;stroke-width:1.0;" x1="319" x2="319" y1="1055.4766" y2="1089.9297"/><polygon fill="#181818" points="315,1079.9297,319,1089.9297,323,1079.9297,319,1083.9297" style="stroke:#181818;stroke-width:1.0;"/><line style="stroke:#181818;stroke-width:1.0;" x1="319" x2="319" y1="1189.0234" y2="1224.0234"/><polygon fill="#181818" points="315,1214.0234,319,1224.0234,323,1214.0234,319,1218.0234" style="stroke:#181818;stroke-width:1.0;"/><line style="stroke:#181818;stroke-width:1.0;" x1="999.75" x2="999.75" y1="518.3203" y2="538.3203"/><polygon fill="#181818" points="995.75,528.3203,999.75,538.3203,1003.75,528.3203,999.75,532.3203" style="stroke:#181818;stroke-width:1.0;"/><line style="stroke:#181818;stroke-width:1.0;" x1="999.75" x2="999.75" y1="672.5078" y2="692.5078"/><polygon fill="#181818" points="995.75,682.5078,999.75,692.5078,1003.75,682.5078,999.75,686.5078" style="stroke:#181818;stroke-width:1.0;"/><line style="stroke:#181818;stroke-width:1.0;" x1="867" x2="867" y1="925.2422" y2="960.2422"/><polygon fill="#181818" points="863,950.2422,867,960.2422,871,950.2422,867,954.2422" style="stroke:#181818;stroke-width:1.0;"/><line style="stroke:#181818;stroke-width:1.0;" x1="867" x2="867" y1="995.3359" y2="1030.3359"/><polygon fill="#181818" points="863,1020.3359,867,1030.3359,871,1020.3359,867,1024.3359" style="stroke:#181818;stroke-width:1.0;"/><line style="stroke:#181818;stroke-width:1.0;" x1="1201" x2="1201" y1="871.9531" y2="906.9531"/><polygon fill="#181818" points="1197,896.9531,1201,906.9531,1205,896.9531,1201,900.9531" style="stroke:#181818;stroke-width:1.0;"/><line style="stroke:#181818;stroke-width:1.0;" x1="1201" x2="1201" y1="1001.0469" y2="1025.9648"/><polygon fill="#181818" points="1197,1015.9648,1201,1025.9648,1205,1015.9648,1201,1019.9648" style="stroke:#181818;stroke-width:1.0;"/><line style="stroke:#181818;stroke-width:1.0;" x1="1253" x2="1298.5" y1="989.0469" y2="989.0469"/><polygon fill="#181818" points="1294.5,1033.5117,1298.5,1043.5117,1302.5,1033.5117,1298.5,1037.5117" style="stroke:#181818;stroke-width:1.0;"/><line style="stroke:#181818;stroke-width:1.0;" x1="1298.5" x2="1298.5" y1="989.0469" y2="1097.4297"/><line style="stroke:#181818;stroke-width:1.0;" x1="1298.5" x2="1213" y1="1097.4297" y2="1097.4297"/><polygon fill="#181818" points="1223,1093.4297,1213,1097.4297,1223,1101.4297,1219,1097.4297" style="stroke:#181818;stroke-width:1.0;"/><line style="stroke:#181818;stroke-width:1.0;" x1="1201" x2="1201" y1="1061.0586" y2="1085.4297"/><polygon fill="#181818" points="1197,1075.4297,1201,1085.4297,1205,1075.4297,1201,1079.4297" style="stroke:#181818;stroke-width:1.0;"/><line style="stroke:#181818;stroke-width:1.0;" x1="1201" x2="1201" y1="942.0469" y2="977.0469"/><polygon fill="#181818" points="1197,967.0469,1201,977.0469,1205,967.0469,1201,971.0469" style="stroke:#181818;stroke-width:1.0;"/><line style="stroke:#181818;stroke-width:1.0;" x1="1201" x2="1201" y1="797.6016" y2="845.6016"/><polygon fill="#181818" points="1197,835.6016,1201,845.6016,1205,835.6016,1201,839.6016" style="stroke:#181818;stroke-width:1.0;"/><line style="stroke:#181818;stroke-width:1.0;" x1="1292.5" x2="1322.5" y1="1169.4297" y2="1169.4297"/><polygon fill="#181818" points="1318.5,987.7891,1322.5,977.7891,1326.5,987.7891,1322.5,983.7891" style="stroke:#181818;stroke-width:1.0;"/><line style="stroke:#181818;stroke-width:1.0;" x1="1322.5" x2="1322.5" y1="785.6016" y2="1169.4297"/><line style="stroke:#181818;stroke-width:1.0;" x1="1322.5" x2="1213" y1="785.6016" y2="785.6016"/><polygon fill="#181818" points="1223,781.6016,1213,785.6016,1223,789.6016,1219,785.6016" style="stroke:#181818;stroke-width:1.0;"/><line style="stroke:#181818;stroke-width:1.0;" x1="1201" x2="1201" y1="1109.4297" y2="1157.4297"/><polygon fill="#181818" points="1197,1147.4297,1201,1157.4297,1205,1147.4297,1201,1151.4297" style="stroke:#181818;stroke-width:1.0;"/><line style="stroke:#181818;stroke-width:1.0;" x1="867" x2="867" y1="753.6016" y2="890.1484"/><polygon fill="#181818" points="863,880.1484,867,890.1484,871,880.1484,867,884.1484" style="stroke:#181818;stroke-width:1.0;"/><line style="stroke:#181818;stroke-width:1.0;" x1="1201" x2="1201" y1="753.6016" y2="773.6016"/><polygon fill="#181818" points="1197,763.6016,1201,773.6016,1205,763.6016,1201,767.6016" style="stroke:#181818;stroke-width:1.0;"/><line style="stroke:#181818;stroke-width:1.0;" x1="867" x2="867" y1="1065.4297" y2="1201.4297"/><polygon fill="#181818" points="863,1191.4297,867,1201.4297,871,1191.4297,867,1195.4297" style="stroke:#181818;stroke-width:1.0;"/><line style="stroke:#181818;stroke-width:1.0;" x1="1201" x2="1201" y1="1181.4297" y2="1201.4297"/><polygon fill="#181818" points="1197,1191.4297,1201,1201.4297,1205,1191.4297,1201,1195.4297" style="stroke:#181818;stroke-width:1.0;"/><line style="stroke:#181818;stroke-width:1.0;" x1="999.75" x2="999.75" y1="727.6016" y2="747.6016"/><polygon fill="#181818" points="995.75,737.6016,999.75,747.6016,1003.75,737.6016,999.75,741.6016" style="stroke:#181818;stroke-width:1.0;"/><line style="stroke:#181818;stroke-width:1.0;" x1="999.75" x2="999.75" y1="1207.4297" y2="1242.4297"/><polygon fill="#181818" points="995.75,1232.4297,999.75,1242.4297,1003.75,1232.4297,999.75,1236.4297" style="stroke:#181818;stroke-width:1.0;"/><line style="stroke:#181818;stroke-width:1.0;" x1="999.75" x2="999.75" y1="1277.5234" y2="1297.5234"/><polygon fill="#181818" points="995.75,1287.5234,999.75,1297.5234,1003.75,1287.5234,999.75,1291.5234" style="stroke:#181818;stroke-width:1.0;"/><line style="stroke:#181818;stroke-width:1.0;" x1="999.75" x2="999.75" y1="1332.6172" y2="1352.6172"/><polygon fill="#181818" points="995.75,1342.6172,999.75,1352.6172,1003.75,1342.6172,999.75,1346.6172" style="stroke:#181818;stroke-width:1.0;"/><line style="stroke:#181818;stroke-width:1.0;" x1="999.75" x2="999.75" y1="1431.7109" y2="1456.6289"/><polygon fill="#181818" points="995.75,1446.6289,999.75,1456.6289,1003.75,1446.6289,999.75,1450.6289" style="stroke:#181818;stroke-width:1.0;"/><line style="stroke:#181818;stroke-width:1.0;" x1="1102.25" x2="1114.25" y1="1419.7109" y2="1419.7109"/><polygon fill="#181818" points="1110.25,1464.1758,1114.25,1474.1758,1118.25,1464.1758,1114.25,1468.1758" style="stroke:#181818;stroke-width:1.0;"/><line style="stroke:#181818;stroke-width:1.0;" x1="1114.25" x2="1114.25" y1="1419.7109" y2="1523.7227"/><line style="stroke:#181818;stroke-width:1.0;" x1="1114.25" x2="1011.75" y1="1523.7227" y2="1523.7227"/><polygon fill="#181818" points="1021.75,1519.7227,1011.75,1523.7227,1021.75,1527.7227,1017.75,1523.7227" style="stroke:#181818;stroke-width:1.0;"/><line style="stroke:#181818;stroke-width:1.0;" x1="999.75" x2="999.75" y1="1491.7227" y2="1511.7227"/><polygon fill="#181818" points="995.75,1501.7227,999.75,1511.7227,1003.75,1501.7227,999.75,1505.7227" style="stroke:#181818;stroke-width:1.0;"/><line style="stroke:#181818;stroke-width:1.0;" x1="999.75" x2="999.75" y1="1387.7109" y2="1407.7109"/><polygon fill="#181818" points="995.75,1397.7109,999.75,1407.7109,1003.75,1397.7109,999.75,1401.7109" style="stroke:#181818;stroke-width:1.0;"/><line style="stroke:#181818;stroke-width:1.0;" x1="999.75" x2="999.75" y1="617.4141" y2="637.4141"/><polygon fill="#181818" points="995.75,627.4141,999.75,637.4141,1003.75,627.4141,999.75,631.4141" style="stroke:#181818;stroke-width:1.0;"/><line style="stroke:#181818;stroke-width:1.0;" x1="1034.75" x2="1360.5" y1="1567.7227" y2="1567.7227"/><polygon fill="#181818" points="1356.5,1106.2539,1360.5,1096.2539,1364.5,1106.2539,1360.5,1102.2539" style="stroke:#181818;stroke-width:1.0;"/><line style="stroke:#181818;stroke-width:1.0;" x1="1360.5" x2="1360.5" y1="605.4141" y2="1567.7227"/><line style="stroke:#181818;stroke-width:1.0;" x1="1360.5" x2="1011.75" y1="605.4141" y2="605.4141"/><polygon fill="#181818" points="1021.75,601.4141,1011.75,605.4141,1021.75,609.4141,1017.75,605.4141" style="stroke:#181818;stroke-width:1.0;"/><line style="stroke:#181818;stroke-width:1.0;" x1="999.75" x2="999.75" y1="1535.7227" y2="1555.7227"/><polygon fill="#181818" points="995.75,1545.7227,999.75,1555.7227,1003.75,1545.7227,999.75,1549.7227" style="stroke:#181818;stroke-width:1.0;"/><line style="stroke:#181818;stroke-width:1.0;" x1="999.75" x2="999.75" y1="573.4141" y2="593.4141"/><polygon fill="#181818" points="995.75,583.4141,999.75,593.4141,1003.75,583.4141,999.75,587.4141" style="stroke:#181818;stroke-width:1.0;"/><line style="stroke:#181818;stroke-width:1.0;" x1="319" x2="319" y1="471.9688" y2="802.4922"/><polygon fill="#181818" points="315,792.4922,319,802.4922,323,792.4922,319,796.4922" style="stroke:#181818;stroke-width:1.0;"/><line style="stroke:#181818;stroke-width:1.0;" x1="999.75" x2="999.75" y1="471.9688" y2="491.9688"/><polygon fill="#181818" points="995.75,481.9688,999.75,491.9688,1003.75,481.9688,999.75,485.9688" style="stroke:#181818;stroke-width:1.0;"/><line style="stroke:#181818;stroke-width:1.0;" x1="319" x2="319" y1="1259.1172" y2="1599.7227"/><polygon fill="#181818" points="315,1589.7227,319,1599.7227,323,1589.7227,319,1593.7227" style="stroke:#181818;stroke-width:1.0;"/><line style="stroke:#181818;stroke-width:1.0;" x1="999.75" x2="999.75" y1="1579.7227" y2="1599.7227"/><polygon fill="#181818" points="995.75,1589.7227,999.75,1599.7227,1003.75,1589.7227,999.75,1593.7227" style="stroke:#181818;stroke-width:1.0;"/><line style="stroke:#181818;stroke-width:1.0;" x1="692.75" x2="692.75" y1="445.9688" y2="465.9688"/><polygon fill="#181818" points="688.75,455.9688,692.75,465.9688,696.75,455.9688,692.75,459.9688" style="stroke:#181818;stroke-width:1.0;"/><line style="stroke:#181818;stroke-width:1.0;" x1="692.75" x2="692.75" y1="1605.7227" y2="1625.7227"/><polygon fill="#181818" points="688.75,1615.7227,692.75,1625.7227,696.75,1615.7227,692.75,1619.7227" style="stroke:#181818;stroke-width:1.0;"/><line style="stroke:#181818;stroke-width:1.0;" x1="692.75" x2="692.75" y1="1704.8164" y2="1729.7344"/><polygon fill="#181818" points="688.75,1719.7344,692.75,1729.7344,696.75,1719.7344,692.75,1723.7344" style="stroke:#181818;stroke-width:1.0;"/><line style="stroke:#181818;stroke-width:1.0;" x1="766.25" x2="778.25" y1="1692.8164" y2="1692.8164"/><polygon fill="#181818" points="774.25,1737.2813,778.25,1747.2813,782.25,1737.2813,778.25,1741.2813" style="stroke:#181818;stroke-width:1.0;"/><line style="stroke:#181818;stroke-width:1.0;" x1="778.25" x2="778.25" y1="1692.8164" y2="1796.8281"/><line style="stroke:#181818;stroke-width:1.0;" x1="778.25" x2="704.75" y1="1796.8281" y2="1796.8281"/><polygon fill="#181818" points="714.75,1792.8281,704.75,1796.8281,714.75,1800.8281,710.75,1796.8281" style="stroke:#181818;stroke-width:1.0;"/><line style="stroke:#181818;stroke-width:1.0;" x1="692.75" x2="692.75" y1="1764.8281" y2="1784.8281"/><polygon fill="#181818" points="688.75,1774.8281,692.75,1784.8281,696.75,1774.8281,692.75,1778.8281" style="stroke:#181818;stroke-width:1.0;"/><line style="stroke:#181818;stroke-width:1.0;" x1="692.75" x2="692.75" y1="1660.8164" y2="1680.8164"/><polygon fill="#181818" points="688.75,1670.8164,692.75,1680.8164,696.75,1670.8164,692.75,1674.8164" style="stroke:#181818;stroke-width:1.0;"/><line style="stroke:#181818;stroke-width:1.0;" x1="692.75" x2="692.75" y1="1808.8281" y2="1828.8281"/><polygon fill="#181818" points="688.75,1818.8281,692.75,1828.8281,696.75,1818.8281,692.75,1822.8281" style="stroke:#181818;stroke-width:1.0;"/><!--MD5=[8929b14162d6738b5adb359ce825ef34]
@startuml
start
:solicitar la cantidad de monedas a minar;
:solicitar la cantidad de rigs que posee;
:solicitar la cantidad de Cpus por Rack;
:Solicitar la cantidad de nucleos por cpu;
:Crear el array de los Racks y asignarles sus propiedades correspondientes;
note right
se le asigna la cantidad de cpus que posee
se le asigna su id
esto mediante una estructura
El cpu tambien es una estructura, posee de atributos id y la cantidad de cores que posee
end note
:crear el hilo de fluctuacion de precios;
:crear el array de hilos para los Racks y ejecutarlos;
fork
note left
estos pasos son correspondientes 
al hilo de variacion de precio
end note
:crear un numero aleatorio de 0 a 1000;
:obtener su modulo al dividirlo entre 10000;
:numero aleatorio de 0 a 1;
if (es 0 el aleatorio) then (true)
:sumar al precio actual el valor del modulo 10000;
else (false)
:restar al precio actual el valor del modulo 10000;
endif
:sleep de 2 segundos;
fork again
note right
proceso empleado por el rack
end note
:RackIsOn = true;
repeat
:crear el array de hilos segun la cantidad de cpus asignados;
:asignarle a cada uno un limite inferior y superor aleatorio;
fork
:esperar a los cpus por medio de join;
:obtenido el valor del cpu, multiplicarlo por el valor actual de la moneda;
:sumar el producto al subtotal;
fork again
repeat
note left
proceso del CPU
end note
:determinar si un numero es primo;
if(numero es primo) then (true)
:sumar el numero al subtotal;
endif
repeat while ( inf <= numero actual <= superior)
end fork
:sumar su resultado al total de monedas producidas;
:reninicar cuenta del rack;
:esperar a los demás hilos por medio de barrera;
if (monedas actuales >= meta a producir) then (true)
:RackIsOn = false;
endif
repeat while (RackIsOn)
end fork
:Indicarle al usuario que ha terminado el proceso;
if(monedas actuales > meta) then (true)
:Mostrar la ganancia;
endif
end
@enduml

PlantUML version 1.2022.7(Mon Aug 22 11:01:30 CST 2022)
(GPL source distribution)
Java Runtime: Java(TM) SE Runtime Environment
JVM: Java HotSpot(TM) 64-Bit Server VM
Default Encoding: Cp1252
Language: en
Country: US
--></g></svg>